<?xml version="1.0" encoding="utf-8"?>
<!-- Generator: Adobe Illustrator 19.0.1, SVG Export Plug-In . SVG Version: 6.00 Build 0)  -->
<svg version="1.1" id="Capa_1" xmlns="http://www.w3.org/2000/svg" xmlns:xlink="http://www.w3.org/1999/xlink" x="0px" y="0px"
	 viewBox="-307 -158 345 345" style="enable-background:new -307 -158 345 345;" xml:space="preserve">
<style type="text/css">
	.st0{fill:#35C11E;}
</style>
<g>
	<path class="st0" d="M14.8-71.7L-23.8-94c-0.9-0.5-1.6-1.3-2.2-2.2l-20.6-35.7c-1.1-1.8-3-3-5.1-3h-41.2c-1,0-2.1-0.3-3-0.8
		l-35.7-20.6c-1.8-1.1-4.1-1.1-5.9,0l-35.7,20.6c-0.9,0.5-1.9,0.8-3,0.8h-41.2c-2.1,0-4.1,1.1-5.1,3l-20.6,35.7
		c-0.5,0.9-1.3,1.6-2.2,2.2l-35.7,20.6c-1.8,1.1-3,3-3,5.1v41.2c0,1-0.3,2.1-0.8,3l-20.6,35.7c-1.1,1.8-1.1,4.1,0,5.9l20.6,35.7
		c0.5,0.9,0.8,1.9,0.8,3v41.2c0,2.1,1.1,4.1,3,5.1l35.7,20.6c0.9,0.5,1.6,1.3,2.2,2.2l20.6,35.7c1.1,1.8,3,3,5.1,3h41.2
		c1,0,2.1,0.3,3,0.8l35.7,20.6c1.8,1.1,4.1,1.1,5.9,0l35.7-20.6c0.9-0.5,1.9-0.8,3-0.8h41.2c2.1,0,4.1-1.1,5.1-3l20.6-35.7
		c0.5-0.9,1.3-1.6,2.2-2.2l35.7-20.6c1.8-1.1,3-3,3-5.1V56.1c0-1,0.3-2.1,0.8-3l20.6-35.7c1.1-1.8,1.1-4.1,0-5.9L15.6-24.1
		c-0.5-0.9-0.8-1.9-0.8-3L14.8-71.7L14.8-71.7L14.8-71.7z M-150.1,85.1c-3.2,3.2-7.5,4.8-11.7,4.7c-4.2,0.1-8.5-1.5-11.7-4.7
		l-46.3-46.3c-8.6-8.6-8.6-22.6,0-31.3l5-5c8.6-8.6,22.6-8.6,31.3,0l17.5,17.5c2.3,2.3,6.1,2.3,8.4,0l76.2-76.2
		c6.3-6.3,16.6-6.3,22.9,0l13.4,13.4c6.3,6.3,6.3,16.6,0,22.9L-150.1,85.1z"/>
</g>
</svg>
