<?xml version="1.0" encoding="utf-8"?>
<!-- Generator: Adobe Illustrator 19.0.1, SVG Export Plug-In . SVG Version: 6.00 Build 0)  -->
<svg version="1.1" id="Layer_1" xmlns="http://www.w3.org/2000/svg" xmlns:xlink="http://www.w3.org/1999/xlink" x="0px" y="0px"
	 viewBox="-458 -14.2 42.7 58.2" style="enable-background:new -458 -14.2 42.7 58.2;" xml:space="preserve">
<style type="text/css">
	.st0{fill:#FF432B;stroke:#FFFFFF;stroke-width:2;stroke-miterlimit:10;}
</style>
<g>
	<g>
		<path class="st0" d="M-415.3,22.6c0-1-0.9-1.9-1.9-1.9c-5.8-0.2-11.3,2.2-15.2,6.2c-0.8,0.8-1.6,1.7-2.3,2.7V14.8
			c6.6-0.9,11.6-6.6,11.6-13.4v-8c0-3.1-3.5-4.9-6-3.2l-2,1.3l-2.2-3.7c-1.5-2.6-5.2-2.6-6.7,0l-2.2,3.7l-2-1.3
			c-2.6-1.7-6,0.1-6,3.2v8c0,6.8,5.1,12.5,11.6,13.4v14.8c-0.7-1-1.4-1.8-2.3-2.7c-3.9-3.9-9.4-6.3-15.2-6.2c-1,0-1.9,0.9-1.9,1.9
			c-0.2,5.8,2.1,11.3,6.2,15.2c4,4,9.5,6.3,15.2,6.1c5.8,0.1,11.2-2.2,15.2-6.1C-417.5,33.9-415.2,28.4-415.3,22.6z M-449.1,35.1
			c-2.7-2.7-4.6-6.5-5-10.4c4,0.3,7.8,2.3,10.4,5c2.7,2.7,4.6,6.5,5,10.4C-442.5,39.7-446.3,37.9-449.1,35.1z M-436.7-10.3l2.3,3.9
			l-2.3,1.5l-2.3-1.5L-436.7-10.3z M-436.7,11.1c-5.3,0-9.7-4.3-9.7-9.7l0-8l8.6,5.7c0.7,0.4,1.5,0.4,2.2,0l8.6-5.7v8
			C-427,6.7-431.3,11.1-436.7,11.1z M-424.2,35.1c-2.7,2.7-6.5,4.6-10.4,5c0.3-3.8,2.1-7.6,5-10.4c2.7-2.7,6.5-4.6,10.4-5
			C-419.6,28.6-421.5,32.4-424.2,35.1z"/>
	</g>
</g>
</svg>
