<?xml version="1.0" encoding="iso-8859-1"?>
<!-- Generator: Adobe Illustrator 19.0.1, SVG Export Plug-In . SVG Version: 6.00 Build 0)  -->
<svg version="1.1" id="Layer_1" xmlns="http://www.w3.org/2000/svg" xmlns:xlink="http://www.w3.org/1999/xlink" x="0px" y="0px"
	 viewBox="-223 25 42.674 58.187" style="enable-background:new -223 25 42.674 58.187;" xml:space="preserve">
<g>
	<g>
		<path style="fill:#E8E8E8;" d="M-180.335,61.791c-0.03-1.027-0.855-1.852-1.882-1.882c-5.813-0.168-11.282,2.163-15.241,6.155
			c-0.831,0.836-1.588,1.736-2.27,2.693V53.991c6.57-0.944,11.636-6.609,11.636-13.437v-8.013c0-3.094-3.456-4.944-6.03-3.227
			l-2.011,1.341l-2.187-3.736c-1.498-2.559-5.196-2.561-6.695,0l-2.187,3.736l-2.011-1.34c-2.575-1.716-6.03,0.133-6.03,3.227v8.012
			c0,6.827,5.066,12.493,11.636,13.437v14.754c-0.679-0.952-1.433-1.848-2.259-2.679c-3.917-3.949-9.37-6.327-15.243-6.157
			c-1.027,0.03-1.852,0.855-1.882,1.882c-0.169,5.773,2.136,11.256,6.155,15.242c4.047,4.023,9.463,6.281,15.173,6.148
			c5.756,0.134,11.158-2.157,15.171-6.146C-182.485,73.061-180.166,67.583-180.335,61.791z M-214.103,74.281
			c-2.735-2.712-4.635-6.491-4.962-10.445c3.988,0.331,7.758,2.252,10.447,4.964c2.721,2.736,4.619,6.471,4.964,10.447
			C-207.492,78.913-211.261,77.106-214.103,74.281z M-201.667,28.879l2.301,3.931l-2.302,1.535l-2.301-1.534L-201.667,28.879z
			 M-201.667,50.252c-5.347,0-9.697-4.35-9.697-9.697l0.001-8.012l8.62,5.747c0.652,0.434,1.5,0.434,2.152,0l8.621-5.747v8.012
			C-191.97,45.902-196.32,50.252-201.667,50.252z M-189.225,74.283c-2.748,2.732-6.487,4.621-10.447,4.964
			c0.333-3.838,2.14-7.607,4.966-10.449c2.723-2.746,6.507-4.636,10.445-4.962C-184.592,67.823-186.514,71.593-189.225,74.283z"/>
	</g>
</g>
</svg>
