<svg xmlns="http://www.w3.org/2000/svg" xmlns:xlink="http://www.w3.org/1999/xlink" xmlns:fi="http://pattern.flaticon.com/" x="0" y="0" width="700" height="350" viewBox="0 0 700 350"><rect x="0px" y="0px" width="100%" height="100%" opacity="1" fill="#f6f8fa"/><defs><path d="M297.26,131.995c8.451-8.398,13.703-20.012,13.703-32.839c0-16.786-9.117-32.298-23.797-40.484    c-3.584-1.998-8.1-0.749-10.148,2.8l-12.391,21.464l-5.432-9.405c8.275-8.58,12.93-19.958,12.93-32.095    c0-16.784-9.117-32.296-23.797-40.484c-3.578-1.997-8.098-0.75-10.148,2.8L225.79,25.216L213.395,3.752    c-2.047-3.549-6.566-4.798-10.149-2.8c-6.719,3.748-12.24,9.05-16.283,15.289c-4.049-6.242-9.586-11.54-16.309-15.29    c-3.58-1.997-8.1-0.75-10.148,2.8l-12.393,21.465L135.719,3.752c-2.049-3.549-6.566-4.798-10.148-2.8    c-14.678,8.187-23.795,23.699-23.795,40.483c0,12.067,4.656,23.512,12.924,32.106l-5.422,9.394L96.883,61.472    c-2.047-3.549-6.566-4.796-10.148-2.8c-14.678,8.187-23.795,23.7-23.795,40.483c0,12.828,5.244,24.447,13.697,32.842    c-0.807,0.605-1.498,1.372-2.014,2.276c-1.336,2.338-1.314,5.212,0.055,7.531l74.812,126.722l-8.27,97.24    c-0.178,2.092,0.529,4.163,1.949,5.709c1.42,1.547,3.424,2.427,5.523,2.427h76.516c2.1,0,4.104-0.88,5.523-2.427    c1.42-1.546,2.127-3.617,1.949-5.709l-8.271-97.24l74.814-126.722c1.369-2.319,1.391-5.193,0.055-7.531    C298.762,133.368,298.069,132.6,297.26,131.995z M204.54,18.412l14.754,25.554c1.34,2.32,3.816,3.75,6.496,3.75    c2.68,0,5.154-1.43,6.494-3.75l14.754-25.554c6.346,5.866,10.088,14.184,10.088,23.024c0,6.783-2.15,13.217-6.053,18.524    c-2.313-2.345-5.979-2.966-8.988-1.288c-6.713,3.745-12.256,9.026-16.303,15.258c-4.047-6.229-9.576-11.515-16.289-15.258    c-3.004-1.676-6.666-1.059-8.979,1.279c-3.902-5.32-6.064-11.771-6.064-18.514C194.45,32.597,198.192,24.278,204.54,18.412z     M156.86,358.903l7.197-84.626h15.395v50.113c0,4.143,3.357,7.5,7.5,7.5c4.143,0,7.5-3.357,7.5-7.5v-50.113h15.395l7.197,84.626    H156.86z M212.454,259.277h-10.43l16.08-69.486c0.934-4.036-1.58-8.064-5.617-8.998c-4.027-0.929-8.063,1.581-8.996,5.616    l-16.539,71.47l-16.539-71.47c-0.934-4.036-4.965-6.551-8.998-5.616c-4.035,0.934-6.551,4.962-5.615,8.998l16.08,69.486h-10.43    L94.274,145.492h185.355L212.454,259.277z M143.338,130.492c1.748-1.906,3.35-3.95,4.766-6.126    c1.418,2.176,3.02,4.222,4.771,6.126H143.338z M221.02,130.492c1.752-1.906,3.351-3.954,4.771-6.132    c1.416,2.18,3.023,4.223,4.773,6.132H221.02z M186.965,66.713c1.576,2.419,3.406,4.683,5.43,6.794l-5.443,9.428l-5.434-9.411    C183.553,71.41,185.383,69.137,186.965,66.713z M180.456,101.685c1.34,2.32,3.816,3.75,6.496,3.75s5.154-1.43,6.494-3.75    l14.756-25.554c6.346,5.865,10.088,14.185,10.088,23.024c0,17.279-14.059,31.337-31.338,31.337s-31.338-14.058-31.338-31.337    c0-8.839,3.742-17.158,10.09-23.023L180.456,101.685z M126.864,18.413l14.754,25.553c1.34,2.32,3.816,3.75,6.496,3.75    s5.154-1.43,6.494-3.75l14.754-25.554c6.348,5.865,10.088,14.184,10.088,23.024c0,6.782-2.156,13.21-6.061,18.515    c-2.311-2.338-5.973-2.955-8.979-1.279c-6.719,3.749-12.256,9.043-16.303,15.281c-4.043-6.238-9.572-11.534-16.291-15.281    c-3.004-1.675-6.664-1.06-8.977,1.276c-3.902-5.319-6.064-11.768-6.064-18.512C116.776,32.597,120.518,24.278,126.864,18.413z     M88.028,76.132l14.754,25.553c1.34,2.321,3.816,3.75,6.496,3.75c2.68,0,5.154-1.43,6.494-3.75l14.754-25.553    c6.346,5.865,10.088,14.184,10.088,23.023c0,17.279-14.057,31.337-31.336,31.337S77.94,116.434,77.94,99.155    C77.94,90.316,81.682,81.997,88.028,76.132z M264.627,130.492c-17.279,0-31.338-14.058-31.338-31.337    c0-8.839,3.742-17.158,10.088-23.023l14.754,25.553c1.34,2.321,3.816,3.75,6.496,3.75s5.154-1.43,6.494-3.75l14.754-25.554    c6.346,5.865,10.088,14.184,10.088,23.024C295.963,116.434,281.907,130.492,264.627,130.492z" transform="matrix(0.19707787505786975 -0.03284631260538466 0.03284631260538466 0.19707787505786975 202.0301531443368 -13.686807501368513)" id="L1_2" fill="#ffffff"/><g transform="matrix(0.20202019810676575 0 0 0.20202019810676575 280.00000143031866 173)" id="L1_3"><path d="M86.312,29.03c1.57,3.809,5.249,6.111,9.127,6.111c1.253,0,2.526-0.24,3.755-0.747c5.039-2.077,7.44-7.845,5.364-12.882   l-0.296-0.718c-2.078-5.04-7.846-7.441-12.882-5.364c-5.039,2.077-7.44,7.845-5.364,12.882L86.312,29.03z" fill="#ffffff"/><path d="M197.806,34.394c1.23,0.507,2.503,0.747,3.755,0.747c3.878,0,7.557-2.302,9.127-6.111l0.296-0.718   c2.076-5.038-0.326-10.806-5.364-12.882c-5.036-2.076-10.806,0.326-12.882,5.364l-0.296,0.718   C190.366,26.55,192.767,32.318,197.806,34.394z" fill="#ffffff"/><path d="M210.688,267.97c-2.077-5.04-7.846-7.44-12.882-5.364c-5.039,2.077-7.44,7.845-5.364,12.882l0.296,0.718   c1.57,3.809,5.249,6.111,9.127,6.111c1.253,0,2.526-0.24,3.755-0.747c5.039-2.077,7.44-7.845,5.364-12.882L210.688,267.97z" fill="#ffffff"/><path d="M99.194,262.606c-5.036-2.075-10.806,0.326-12.882,5.364l-0.296,0.718c-2.076,5.038,0.326,10.806,5.364,12.882   c1.23,0.507,2.502,0.747,3.755,0.747c3.878,0,7.557-2.302,9.127-6.111l0.296-0.718C106.634,270.45,104.233,264.682,99.194,262.606z   " fill="#ffffff"/><path d="M287.133,138.633h-52.311c-0.54-4.752-1.458-9.39-2.735-13.88l17.554-7.228c5.039-2.075,7.442-7.842,5.367-12.881   c-2.075-5.04-7.841-7.44-12.881-5.367l-17.581,7.239c-2.354-4.246-5.051-8.275-8.058-12.05l37.017-37.017   c3.853-3.853,3.853-10.101,0-13.955c-3.854-3.852-10.1-3.852-13.955,0l-37.017,37.017c-3.68-2.931-7.603-5.568-11.733-7.88   l7.312-17.551c2.096-5.03-0.282-10.807-5.313-12.902c-5.027-2.099-10.808,0.282-12.902,5.313l-7.302,17.525   c-4.599-1.329-9.353-2.285-14.229-2.838V9.867c0-5.449-4.418-9.867-9.867-9.867c-5.449,0-9.867,4.418-9.867,9.867v52.311   c-4.752,0.54-9.39,1.458-13.88,2.735l-7.228-17.554c-2.075-5.039-7.842-7.44-12.881-5.367c-5.039,2.075-7.442,7.842-5.367,12.881   l7.239,17.581c-4.246,2.354-8.275,5.051-12.05,8.057L57.45,43.495c-3.854-3.852-10.1-3.852-13.955,0   c-3.853,3.853-3.853,10.101,0,13.955l37.016,37.016c-2.931,3.68-5.569,7.604-7.88,11.734l-17.552-7.313   c-5.027-2.098-10.808,0.282-12.902,5.313c-2.096,5.03,0.282,10.807,5.313,12.902l17.526,7.302   c-1.329,4.598-2.285,9.353-2.838,14.228H9.867C4.418,138.633,0,143.051,0,148.5s4.418,9.867,9.867,9.867h52.311   c0.54,4.752,1.458,9.39,2.735,13.88l-17.554,7.228c-5.039,2.075-7.442,7.842-5.367,12.881c1.569,3.81,5.249,6.113,9.128,6.113   c1.252,0,2.524-0.24,3.753-0.746l17.581-7.239c2.354,4.246,5.051,8.276,8.057,12.05l-37.016,37.017   c-3.853,3.853-3.853,10.101,0,13.955c1.927,1.926,4.452,2.89,6.977,2.89c2.526,0,5.05-0.964,6.977-2.89l37.017-37.017   c3.68,2.931,7.603,5.568,11.732,7.88l-7.313,17.551c-2.096,5.03,0.282,10.807,5.313,12.902c1.24,0.517,2.526,0.762,3.791,0.762   c3.864,0,7.533-2.286,9.112-6.075l7.302-17.526c4.599,1.329,9.354,2.285,14.229,2.839v52.311c0,5.449,4.418,9.867,9.867,9.867   c5.449,0,9.867-4.418,9.867-9.867v-52.311c4.752-0.54,9.39-1.458,13.88-2.735l7.228,17.554c1.569,3.81,5.249,6.113,9.128,6.113   c1.252,0,2.524-0.24,3.753-0.746c5.039-2.075,7.442-7.842,5.367-12.881l-7.239-17.581c4.246-2.354,8.275-5.051,12.05-8.057   l37.017,37.017c1.927,1.926,4.452,2.89,6.977,2.89c2.525,0,5.05-0.964,6.977-2.89c3.853-3.853,3.853-10.101,0-13.955   l-37.017-37.017c2.931-3.68,5.569-7.603,7.88-11.733l17.55,7.313c1.241,0.517,2.526,0.762,3.792,0.762   c3.864,0,7.532-2.286,9.112-6.074c2.097-5.031-0.282-10.808-5.312-12.903l-17.526-7.303c1.329-4.598,2.285-9.353,2.838-14.228   h52.311c5.449,0,9.867-4.418,9.867-9.867S292.582,138.633,287.133,138.633z M148.5,215.651c-37.028,0-67.151-30.124-67.151-67.151   s30.124-67.151,67.151-67.151c37.028,0,67.151,30.124,67.151,67.151S185.528,215.651,148.5,215.651z" fill="#ffffff"/><path d="M21.512,192.441l-0.718,0.296c-5.039,2.077-7.44,7.845-5.364,12.882c1.57,3.809,5.249,6.111,9.127,6.111   c1.253,0,2.526-0.24,3.755-0.747l0.718-0.296c5.039-2.077,7.44-7.845,5.364-12.882C32.318,192.766,26.548,190.364,21.512,192.441z" fill="#ffffff"/><path d="M20.794,104.263l0.718,0.296c1.23,0.507,2.502,0.747,3.755,0.747c3.878,0,7.557-2.302,9.127-6.111   c2.076-5.038-0.326-10.806-5.364-12.882l-0.718-0.296c-5.036-2.076-10.806,0.325-12.882,5.364   C13.354,96.418,15.756,102.186,20.794,104.263z" fill="#ffffff"/><path d="M271.733,105.305c1.253,0,2.525-0.24,3.755-0.747l0.718-0.296c5.039-2.077,7.44-7.845,5.364-12.882   c-2.078-5.04-7.846-7.441-12.882-5.364l-0.718,0.296c-5.039,2.077-7.44,7.845-5.364,12.882   C264.175,103.003,267.854,105.305,271.733,105.305z" fill="#ffffff"/><path d="M276.206,192.737l-0.718-0.296c-5.037-2.076-10.806,0.326-12.882,5.364c-2.076,5.038,0.326,10.806,5.364,12.882   l0.718,0.296c1.23,0.507,2.503,0.747,3.755,0.747c3.878,0,7.557-2.302,9.127-6.111   C283.646,200.582,281.244,194.814,276.206,192.737z" fill="#ffffff"/></g><path d="M293.925,279.079l-39.257-39.257c6.525-24.992,26.901-118.365-18.849-164.116C185.789,25.678,19.07,1.128,11.997,0.107  C8.716-0.361,5.414,0.734,3.074,3.074s-3.439,5.646-2.967,8.922c1.021,7.073,25.57,173.792,75.598,223.822  c19.253,19.253,48.907,29.014,88.137,29.014c32.859,0,63.316-6.886,75.973-10.17l39.264,39.264c2.05,2.049,4.736,3.074,7.423,3.074  c2.687,0,5.373-1.025,7.423-3.074C298.025,289.825,298.025,283.178,293.925,279.079z M163.843,243.837  c-33.459,0-58.119-7.693-73.291-22.866c-18.319-18.319-36.149-60.49-51.563-121.953c-7.737-30.85-13.044-59.495-15.824-75.854  c16.359,2.78,45.003,8.087,75.854,15.825c61.464,15.414,103.635,33.244,121.955,51.563c32.385,32.384,23.006,99.791,16.2,131.775  l-63.65-63.649v-39.23c0-5.797-4.7-10.497-10.497-10.497c-5.797,0-10.497,4.7-10.497,10.497v18.235L105.08,90.234  c-4.101-4.098-10.746-4.098-14.846,0c-4.1,4.1-4.1,10.746,0,14.846l11.132,11.132H83.129c-5.797,0-10.497,4.7-10.497,10.497  c0,5.797,4.7,10.497,10.497,10.497h39.232L174,188.845l-18.238,0c-5.797,0-10.497,4.7-10.497,10.497  c0,5.797,4.699,10.497,10.497,10.497l39.233,0.001l27.349,27.348C207.942,240.258,186.331,243.837,163.843,243.837z" transform="matrix(0.20202019810676575 0 0 0.20202019810676575 82 259)" id="L1_4" fill="#ffffff"/><path d="M236.235,118.678h-77.976V82.019c6.325,4.191,13.466,7.66,19.778,7.66c0.503,0,0.998-0.02,1.485-0.06  c12.191-0.994,33.401-17.38,41.954-24.379c2.393-1.959,3.672-4.969,3.421-8.052c-0.251-3.083-2.001-5.845-4.68-7.391  c-7.048-4.065-31.031-17.329-43.761-17.329c-0.541,0-1.076,0.021-1.588,0.063c-6.677,0.544-13.824,5.066-19.871,10.131  c-2.62-12.469-6.64-20.902-12.212-25.635C129.527,5.769,85.911,0.907,77.302,0.047c-3.066-0.309-6.11,0.916-8.112,3.273  c-2.003,2.358-2.719,5.548-1.917,8.535c2.243,8.356,14.102,50.61,27.363,61.871c7.443,6.321,20.752,9.395,40.685,9.395  c1.441,0,2.816-0.018,4.108-0.046v35.602H60.765c-5.2,0-9.415,4.216-9.415,9.415v53.532c0,5.2,4.216,9.415,9.415,9.415h4.167  l11.55,97.65c0.561,4.739,4.578,8.309,9.35,8.309h125.337c4.772,0,8.789-3.57,9.35-8.309l11.55-97.65h4.167  c5.2,0,9.415-4.216,9.415-9.415v-53.532C245.65,122.894,241.434,118.678,236.235,118.678z M176.456,51.299  c3.526,0,12.429,3.553,21.67,8.078c-8.973,6.385-17.143,11.146-20.108,11.47c-2.65-0.019-9.184-3.993-15.736-9.293  C168.029,55.923,173.938,51.511,176.456,51.299z M135.32,64.291c-16.741,0-25.696-2.54-28.495-4.918  c-4.632-3.933-11.769-21.214-17.383-38.854c18.31,2.68,36.515,6.923,41.153,10.862c4.144,3.52,7.322,18.351,8.424,32.868  C137.856,64.276,136.615,64.291,135.32,64.291z M70.18,137.509H226.82v34.702H70.18V137.509z M202.801,278.169H94.199  l-10.305-87.128h129.212L202.801,278.169z" transform="matrix(0.20202019810676575 0 0 0.20202019810676575 137.99999785452178 106.00000429095633)" id="L1_5" fill="#ffffff"/><g transform="matrix(0.22787194452349452 0.06836158037252958 -0.06836158037252958 0.22787194452349452 10.28170703889527 1.0210504686181494)" id="L1_6"><path d="M294.276,93.116l-35.038-35.038c-3.634-3.632-9.522-3.632-13.155,0l-9.025,9.026c-4.017,4.016-6.229,9.368-6.229,15.071   c0,2.165,0.318,4.278,0.933,6.287l-19.492,16.269V83.734c0-13.05-10.617-23.667-23.667-23.667H83.99   c-10.567,0-19.537,6.961-22.571,16.536c-5.619-2.599-11.781-3.975-18.156-3.975c-11.562,0-22.433,4.503-30.608,12.678   c-16.877,16.877-16.877,44.339,0.021,61.236l47.643,47.346v24.088c0,13.052,10.619,23.671,23.671,23.671h104.611   c13.05,0,23.667-10.619,23.667-23.671v-28.31l52.024-68.958c7.204,2.054,15.293,0.253,20.957-5.409l9.027-9.027   C297.908,102.638,297.908,96.748,294.276,93.116z M25.81,133.366c-9.623-9.623-9.623-25.281,0-34.905   c4.662-4.662,10.86-7.23,17.453-7.23c6.41,0,12.442,2.433,17.056,6.852v69.577L25.81,133.366z M193.665,217.976   c0,2.747-2.319,5.067-5.063,5.067H83.99c-2.747,0-5.067-2.32-5.067-5.067V83.734c0-2.744,2.32-5.063,5.067-5.063h104.611   c2.744,0,5.063,2.319,5.063,5.063V217.976z M272.094,102.142c-1.038,1.039-2.794,1.037-3.834-0.002   c-1.905-1.903-4.537-2.892-7.224-2.7c-2.685,0.187-5.157,1.529-6.778,3.677l-41.989,55.657v-29.811l37.326-31.153   c2.005-1.674,3.214-4.114,3.332-6.724c0.117-2.61-0.868-5.148-2.715-6.996c-0.679-0.678-0.779-1.492-0.779-1.917   c0-0.424,0.101-1.238,0.779-1.916l2.448-2.448l21.883,21.883L272.094,102.142z" fill="#ffffff"/><path d="M161.467,125.929c-0.484-5.851-2.962-11.297-7.11-15.53c-4.705-4.802-10.991-7.471-17.699-7.514c-0.058,0-0.114,0-0.171,0   c-12.977,0-23.723,9.971-24.976,22.722c-12.744,1.102-22.832,11.829-22.933,24.93c-0.051,6.754,2.526,13.115,7.257,17.913   c4.142,4.201,9.504,6.757,15.292,7.332c0.483,5.879,2.98,11.346,7.163,15.588c4.698,4.767,10.965,7.415,17.643,7.458   c0.058,0,0.114,0,0.171,0c12.975,0,23.72-9.969,24.978-22.72c12.747-1.103,22.832-11.833,22.93-24.93   c0.054-6.756-2.522-13.118-7.251-17.915C172.616,129.06,167.253,126.504,161.467,125.929z M136.49,116.838c0.025,0,0.051,0,0.075,0   c2.963,0.019,5.743,1.2,7.825,3.326c2.094,2.137,3.234,4.971,3.211,7.986c-0.007,1.122-0.183,2.24-0.521,3.324   c-0.45,1.441-0.4,2.953,0.071,4.331c-3.057-2.218-6.801-3.542-10.856-3.542c-3.94,0-7.59,1.244-10.598,3.348   c0.471-1.355,0.535-2.844,0.112-4.269c-0.319-1.074-0.476-2.192-0.467-3.325C125.389,121.836,130.382,116.838,136.49,116.838z    M140.907,150.856c0,2.559-2.069,4.64-4.613,4.64c-2.544,0-4.613-2.081-4.613-4.64c0-2.559,2.069-4.64,4.613-4.64   C138.838,146.216,140.907,148.297,140.907,150.856z M116.825,161.486c-1.021,0.31-2.087,0.468-3.17,0.468   c-0.029,0-0.063-0.005-0.089-0.001c-2.948-0.018-5.717-1.19-7.797-3.299c-2.111-2.141-3.261-4.986-3.238-8.008   c0.048-6.18,5.04-11.177,11.16-11.177c0.025,0,0.053,0,0.078,0c1.107,0.005,2.196,0.176,3.238,0.507   c1.424,0.453,2.922,0.415,4.292-0.036c-2.235,3.07-3.57,6.836-3.57,10.917c0,3.997,1.278,7.694,3.43,10.729   c-0.74-0.259-1.518-0.401-2.306-0.401C118.176,161.184,117.493,161.283,116.825,161.486z M136.099,184.875   c-0.025,0-0.051,0-0.075,0c-2.95-0.019-5.719-1.191-7.798-3.299c-2.109-2.14-3.257-4.983-3.233-8.014   c0.007-1.129,0.182-2.244,0.517-3.313c0.452-1.443,0.403-2.958-0.068-4.339c3.056,2.216,6.799,3.539,10.852,3.539   c3.941,0,7.593-1.245,10.601-3.351c-0.471,1.356-0.536,2.845-0.113,4.271c0.32,1.076,0.477,2.195,0.468,3.325   C147.202,179.875,142.208,184.875,136.099,184.875z M158.91,162.248c-0.025,0-0.05,0-0.075,0c-1.106-0.007-2.202-0.18-3.257-0.513   c-1.423-0.452-2.919-0.413-4.288,0.039c2.235-3.07,3.571-6.836,3.571-10.918c0-4-1.28-7.7-3.435-10.736   c1.375,0.484,2.89,0.547,4.338,0.11c1.056-0.32,2.173-0.462,3.26-0.471c2.95,0.018,5.72,1.19,7.799,3.299   c2.11,2.14,3.259,4.984,3.235,8.013C170.012,157.25,165.02,162.248,158.91,162.248z" fill="#ffffff"/></g></defs><g fi:class="KUsePattern"><pattern id="pattern_L1_2" width="350" height="350" patternUnits="userSpaceOnUse"><use xlink:href="#L1_2" x="-350" y="-350"/><use xlink:href="#L1_2" x="0" y="-350"/><use xlink:href="#L1_2" x="350" y="-350"/><use xlink:href="#L1_2" x="-350" y="0"/><use xlink:href="#L1_2" x="0" y="0"/><use xlink:href="#L1_2" x="350" y="0"/><use xlink:href="#L1_2" x="-350" y="350"/><use xlink:href="#L1_2" x="0" y="350"/><use xlink:href="#L1_2" x="350" y="350"/></pattern><rect x="0" y="0" width="100%" height="100%" fill="url(#pattern_L1_2)"/></g><g fi:class="KUsePattern"><pattern id="pattern_L1_3" width="350" height="350" patternUnits="userSpaceOnUse"><use xlink:href="#L1_3" x="-350" y="-350"/><use xlink:href="#L1_3" x="0" y="-350"/><use xlink:href="#L1_3" x="350" y="-350"/><use xlink:href="#L1_3" x="-350" y="0"/><use xlink:href="#L1_3" x="0" y="0"/><use xlink:href="#L1_3" x="350" y="0"/><use xlink:href="#L1_3" x="-350" y="350"/><use xlink:href="#L1_3" x="0" y="350"/><use xlink:href="#L1_3" x="350" y="350"/></pattern><rect x="0" y="0" width="100%" height="100%" fill="url(#pattern_L1_3)"/></g><g fi:class="KUsePattern"><pattern id="pattern_L1_4" width="350" height="350" patternUnits="userSpaceOnUse"><use xlink:href="#L1_4" x="-350" y="-350"/><use xlink:href="#L1_4" x="0" y="-350"/><use xlink:href="#L1_4" x="350" y="-350"/><use xlink:href="#L1_4" x="-350" y="0"/><use xlink:href="#L1_4" x="0" y="0"/><use xlink:href="#L1_4" x="350" y="0"/><use xlink:href="#L1_4" x="-350" y="350"/><use xlink:href="#L1_4" x="0" y="350"/><use xlink:href="#L1_4" x="350" y="350"/></pattern><rect x="0" y="0" width="100%" height="100%" fill="url(#pattern_L1_4)"/></g><g fi:class="KUsePattern"><pattern id="pattern_L1_5" width="350" height="350" patternUnits="userSpaceOnUse"><use xlink:href="#L1_5" x="-350" y="-350"/><use xlink:href="#L1_5" x="0" y="-350"/><use xlink:href="#L1_5" x="350" y="-350"/><use xlink:href="#L1_5" x="-350" y="0"/><use xlink:href="#L1_5" x="0" y="0"/><use xlink:href="#L1_5" x="350" y="0"/><use xlink:href="#L1_5" x="-350" y="350"/><use xlink:href="#L1_5" x="0" y="350"/><use xlink:href="#L1_5" x="350" y="350"/></pattern><rect x="0" y="0" width="100%" height="100%" fill="url(#pattern_L1_5)"/></g><g fi:class="KUsePattern"><pattern id="pattern_L1_6" width="350" height="350" patternUnits="userSpaceOnUse"><use xlink:href="#L1_6" x="-350" y="-350"/><use xlink:href="#L1_6" x="0" y="-350"/><use xlink:href="#L1_6" x="350" y="-350"/><use xlink:href="#L1_6" x="-350" y="0"/><use xlink:href="#L1_6" x="0" y="0"/><use xlink:href="#L1_6" x="350" y="0"/><use xlink:href="#L1_6" x="-350" y="350"/><use xlink:href="#L1_6" x="0" y="350"/><use xlink:href="#L1_6" x="350" y="350"/></pattern><rect x="0" y="0" width="100%" height="100%" fill="url(#pattern_L1_6)"/></g></svg>