<svg width="32" height="19" viewBox="0 0 32 19" xmlns="http://www.w3.org/2000/svg"><title>Artboard 11</title><g fill="none" fill-rule="evenodd"><circle fill="#ED1C2E" cx="9.5" cy="9.5" r="9.5"/><path d="M22.3 0c-2.5 0-4.7.9-6.4 2.5-.3.3-.7.6-1 1h1.9c.3.3.5.7.7 1h-3.4c-.2.3-.4.7-.5 1h4.5c.2.3.3.7.4 1h-5.3c-.1.3-.2.7-.3 1h5.8c.1.6.2 1.3.2 2 0 1.1-.2 2.1-.5 3h-5.3c.1.3.2.7.4 1H18c-.2.3-.3.7-.5 1h-3.4c.2.4.5.7.7 1h1.9c-.3.4-.6.7-1 1 1.7 1.5 3.9 2.5 6.4 2.5 5.2 0 9.5-4.3 9.5-9.5.2-5.2-4.1-9.5-9.3-9.5zM30.5 14.8c0-.2.1-.3.3-.3.2 0 .3.1.3.3 0 .2-.1.3-.3.3-.2 0-.3-.1-.3-.3zm.3.2c.1 0 .2-.1.2-.2s-.1-.2-.2-.2-.2.1-.2.2.1.2.2.2zm0-.1l-.1-.3h.2V14.9h-.1v-.1.1zm0-.1c0-.1 0-.1 0 0z" fill="#FCB131"/><g><g fill="#003473"><path d="M7.3 10.5h-.2c-.6 0-.9.2-.9.6 0 .2.1.4.4.4.4 0 .7-.4.7-1zm.7 1.8h-.9v-.4c-.3.3-.6.5-1.1.5-.6 0-.9-.4-.9-1.1 0-1 .7-1.5 1.8-1.5h.4v-.3c0-.3-.2-.4-.7-.4-.5 0-.9.1-1.1.2 0-.1.1-.9.1-.9.5-.2.9-.2 1.2-.2.9 0 1.4.4 1.4 1.1 0 .2 0 .4-.1.8.2.7 0 1.9-.1 2.2zM4.7 12.3h-1l.6-3.7L3 12.3h-.7l-.1-3.7-.6 3.7h-1l.8-4.8h1.5l.1 2.7.9-2.7h1.6l-.8 4.8zM23.5 10.5h-.2c-.6 0-.9.2-.9.6 0 .2.1.4.4.4.4 0 .7-.4.7-1zm.8 1.8h-.9v-.4c-.3.3-.6.5-1.1.5-.6 0-.9-.4-.9-1.1 0-1 .7-1.5 1.8-1.5h.4v-.3c0-.3-.2-.4-.7-.4-.5 0-.9.1-1.1.2 0-.1.1-.9.1-.9.5-.2.9-.2 1.2-.2.9 0 1.4.4 1.4 1.1 0 .2 0 .4-.1.8.1.7-.1 1.9-.1 2.2zM12.6 12.2c-.3.1-.5.1-.7.1-.5 0-.8-.3-.8-.9 0-.2.1-.6.1-1 .1-.4.4-2.7.4-2.7h1l-.1.6h.6l-.1 1h-.6c-.1.7-.3 1.7-.3 1.8 0 .2.1.3.4.3h.3l-.2.8zM15.8 12.2c-.4.1-.7.2-1.1.2-1.1 0-1.7-.6-1.7-1.7 0-1.3.8-2.3 1.8-2.3.8 0 1.4.6 1.4 1.4 0 .3 0 .6-.1 1h-2c-.1.6.3.8.9.8.4 0 .7-.1 1.1-.2l-.3.8zm-.6-2.3c0-.1.1-.7-.5-.7-.3 0-.6.2-.7.7h1.2zM8.7 9.6c0 .5.2.8.8 1.1.4.2.5.3.5.4 0 .2-.2.4-.6.4-.3 0-.6 0-.9-.2l-.1.9c.2.1.4.1 1.1.1 1.1 0 1.6-.4 1.6-1.3 0-.5-.2-.9-.7-1.1-.6-.1-.7-.2-.7-.4s.2-.3.5-.3c.2 0 .5 0 .7.1l.1-.9c-.3 0-.7-.1-.9-.1-1.1 0-1.5.6-1.4 1.3z"/><path d="M20.8 8.4c.3 0 .6.1.9.3l.2-1c-.2-.1-.7-.4-1.1-.4-.7 0-1.3.3-1.7.9-.6-.2-.8.2-1.1.6l-.3.1v-.4h-.9c-.1 1.2-.4 2.4-.5 3.7v.3h1c.2-1.1.3-1.8.3-2.3l.4-.2c.1-.2.2-.3.6-.3 0 .3-.1.5-.1.8 0 1.3.7 2.1 1.8 2.1.3 0 .5 0 .9-.1l.2-1.1c-.3.2-.6.2-.9.2-.6 0-1-.4-1-1.2 0-1.3.5-2 1.3-2zM29.5 7.5l-.2 1.4c-.3-.4-.6-.6-1-.6-.5 0-1 .4-1.3 1-.4-.2-.9-.3-.9-.3v-.6h-.9c-.1 1.2-.4 2.4-.5 3.7v.3h1c.1-.9.2-1.7.3-2.3.4-.3.5-.6.9-.6-.2.4-.2.8-.2 1.3 0 1 .5 1.6 1.2 1.6.4 0 .7-.1 1-.4v.4h1l.8-4.8h-1.2v-.1zm-1.3 3.9c-.4 0-.5-.3-.5-.8 0-.8.3-1.3.8-1.3.4 0 .5.3.5.8 0 .7-.3 1.3-.8 1.3z"/></g><g fill="#FFF"><path d="M5 12H4l.6-3.7L3.3 12h-.7l-.1-3.7-.6 3.7h-1l.8-4.8h1.5v3l1-3h1.6L5 12zM7.6 10.3h-.2c-.6 0-.9.2-.9.6 0 .2.1.4.4.4.4-.1.7-.5.7-1zm.7 1.7h-.9v-.4c-.3.3-.6.5-1.1.5-.6 0-.9-.4-.9-1.1 0-1 .7-1.5 1.8-1.5h.4v-.3c0-.3-.2-.4-.7-.4-.3.1-.7.2-.9.3 0-.1.1-.9.1-.9.5-.1.9-.2 1.3-.2.9 0 1.4.4 1.4 1.1 0 .2 0 .5-.1.8-.2.6-.3 1.8-.4 2.1zM22.2 7.3l-.2 1c-.4-.2-.6-.3-.9-.3-.8 0-1.3.7-1.3 1.8 0 .7.4 1.2 1 1.2.3 0 .5-.1.9-.2l-.2 1.1c-.4.1-.6.1-.9.1-1.1 0-1.8-.8-1.8-2.1 0-1.7 1-2.9 2.3-2.9.4.1.9.3 1.1.3z"/><path d="M23.8 10.3h-.2c-.6 0-.9.2-.9.6 0 .2.1.4.4.4.4-.1.7-.5.7-1zm.8 1.7h-.9v-.4c-.3.3-.6.5-1.1.5-.6 0-.9-.4-.9-1.1 0-1 .7-1.5 1.8-1.5h.4v-.3c0-.3-.2-.4-.7-.4-.5 0-.9.1-1.1.2 0-.1.1-.9.1-.9.7 0 1-.1 1.4-.1.9 0 1.4.4 1.4 1.1 0 .2 0 .5-.1.8-.1.6-.3 1.8-.3 2.1zM12.9 11.9c-.3.1-.5.1-.7.1-.5 0-.8-.3-.8-.9 0-.2.1-.6.1-1 .1-.4.4-2.7.4-2.7h1l-.1.6h.5l-.1 1h-.5c-.1.7-.3 1.7-.3 1.8 0 .2.1.3.4.3h.3l-.2.8zM16.1 11.9c-.4.1-.7.2-1.1.2-1.1 0-1.7-.6-1.7-1.7C13.3 9 14 8 15.1 8c.8 0 1.4.6 1.4 1.4 0 .3 0 .6-.1 1h-2c-.1.6.3.8.9.8.4 0 .7-.1 1.1-.2l-.3.9zm-.6-2.3c0-.1.1-.7-.5-.7-.3 0-.6.2-.7.7h1.2zM8.9 9.3c0 .5.2.8.8 1.1.4.2.5.3.5.4 0 .2-.2.4-.6.4-.3 0-.6 0-.9-.2l-.1.9c.2.1.4.2 1 .2 1.1 0 1.6-.4 1.6-1.3 0-.5-.2-.9-.7-1.1-.4-.2-.5-.3-.5-.5s.2-.3.5-.3c.2 0 .5 0 .7.1l.1-.9c-.2-.1-.6-.1-.8-.1-1.2 0-1.6.6-1.6 1.3zM30 12h-1v-.4c-.3.3-.6.4-1 .4-.7 0-1.2-.6-1.2-1.6 0-1.3.8-2.4 1.7-2.4.4 0 .7.2 1 .5l.2-1.4h1L30 12zm-1.5-.9c.5 0 .8-.5.8-1.3 0-.5-.2-.8-.5-.8-.5 0-.8.6-.8 1.3 0 .5.2.8.5.8z"/><path d="M25.5 8.1c-.1 1.2-.4 2.4-.5 3.7v.3h1c.4-2.4.5-2.9 1-2.8.1-.5.3-.9.4-1.1-.4-.1-.7.2-1 .6 0-.2.1-.4.1-.6h-1v-.1zM17 8.1c-.1 1.2-.4 2.4-.5 3.7v.3h1c.4-2.4.5-2.9 1-2.8.1-.5.3-.9.4-1.1-.4-.1-.7.2-1 .6 0-.2.1-.4.1-.6h-1v-.1zM30.5 11.7c0-.2.1-.3.3-.3.2 0 .3.1.3.3 0 .2-.1.3-.3.3-.2 0-.3-.1-.3-.3zm.3.2c.1 0 .2-.1.2-.2s-.1-.2-.2-.2-.2.1-.2.2.1.2.2.2zm0-.1l-.1-.3h.2V11.8h-.1v-.1.1zm0-.1c0-.1 0-.1 0 0z"/></g></g></g></svg>