<svg width="32" height="11" viewBox="0 0 32 11" xmlns="http://www.w3.org/2000/svg"><title>Artboard 10</title><g fill="none" fill-rule="evenodd"><path d="M10.4 10.1L11.9.4h2.6l-1.6 9.7h-2.5M22 .6c-.5-.2-1.3-.4-2.2-.4-2.5 0-4.2 1.3-4.2 3.2 0 1.4 1.2 2.2 2.2 2.6 1 .5 1.3.8 1.3 1.2 0 .6-.8.9-1.5.9-1 0-1.5-.1-2.4-.5l-.3-.2-.3 2.2c.6.3 1.7.5 2.8.5 2.6 0 4.3-1.3 4.4-3.3 0-1.1-.7-1.9-2.1-2.6-.9-.4-1.4-.7-1.4-1.2 0-.4.5-.8 1.4-.8.8 0 1.4.2 1.9.4l.2.1.2-2.1M28.4.4h-1.9c-.6 0-1 .2-1.3.8l-3.7 8.9H24l.5-1.5h3.2c.1.3.3 1.5.3 1.5h2.3L28.4.4zm-3.1 6.2c.2-.6 1-2.7 1-2.7l.3-.9.2.8s.5 2.3.6 2.8h-2.1zM8.3.4L5.8 7l-.3-1.3C5 4.2 3.6 2.5 2 1.6l2.2 8.5h2.6L10.7.4H8.3" fill="#0023A0"/><path d="M3.6.4h-4v.2c3.1.8 5.2 2.7 6.1 5.1l-.9-4.5C4.5.6 4.1.4 3.6.4z" fill="#FFA000"/><path d="M31.2 8.9c.3 0 .6.2.6.6 0 .3-.2.6-.6.6-.3 0-.6-.2-.6-.6.1-.4.3-.6.6-.6zm0 1c.3 0 .4-.2.4-.5s-.2-.5-.4-.5c-.3 0-.4.2-.4.5s.2.5.4.5zm-.2-.7h.2c.1 0 .2 0 .2.2 0 0 0 .1-.1.1.1 0 .1.1.1.1v.1h-.1v-.1c0-.1 0-.1-.1-.1h-.1v.2H31v-.5zm.1.2h.1c.1 0 .1 0 .1-.1s0-.1-.1-.1h-.1v.2z" fill="#0023A0"/></g></svg>