<svg width="20" height="20" viewBox="0 0 20 20" xmlns="http://www.w3.org/2000/svg"><title>ym_logo_20x20</title><g fill="none" fill-rule="evenodd"><path d="M2 9.953c0-1.12.1-1.83 2.54-3.56 2.02-1.434 8.498-6.33 8.498-6.33v8.173h4.926V20H3.539C2.693 20 2 19.342 2 18.538V9.953" fill="#F9C637"/><path d="M13.038 8.236v4.736L3.986 18.83l11.445-3.536V8.236h-2.393" fill="#C8A332"/><path d="M8.902 7.992c.529-.6 1.302-.811 1.727-.473.424.339.34 1.099-.19 1.698s-1.302.81-1.727.472c-.424-.339-.34-1.098.19-1.697" fill="#000106"/></g></svg>