<?xml version="1.0" encoding="iso-8859-1"?>
<!-- Generator: Adobe Illustrator 19.0.1, SVG Export Plug-In . SVG Version: 6.00 Build 0)  -->
<svg version="1.1" id="&#x421;&#x43B;&#x43E;&#x439;_1"
	 xmlns="http://www.w3.org/2000/svg" xmlns:xlink="http://www.w3.org/1999/xlink" x="0px" y="0px" viewBox="0 0 32.918 49.625"
	 style="enable-background:new 0 0 32.918 49.625;" xml:space="preserve">
<g>
	<g>
		<g>
			<path style="fill:#FF4530;stroke:#FFFFFF;stroke-miterlimit:10;" d="M31.1,17.519c1.122-1.115,1.819-2.656,1.819-4.358
				c0-2.228-1.21-4.287-3.158-5.373c-0.476-0.265-1.075-0.099-1.347,0.372l-1.645,2.849l-0.721-1.248
				c1.098-1.139,1.716-2.649,1.716-4.26c0-2.228-1.21-4.286-3.158-5.373c-0.475-0.265-1.075-0.1-1.347,0.372l-1.644,2.849
				l-1.645-2.849c-0.272-0.471-0.871-0.637-1.347-0.372c-0.892,0.497-1.625,1.201-2.161,2.029c-0.537-0.828-1.272-1.532-2.165-2.029
				c-0.475-0.265-1.075-0.1-1.347,0.372l-1.645,2.849L9.659,0.498C9.387,0.027,8.788-0.139,8.313,0.126
				C6.364,1.213,5.154,3.272,5.154,5.499c0,1.602,0.618,3.121,1.715,4.261l-0.72,1.247L4.505,8.159
				C4.233,7.688,3.634,7.522,3.158,7.787C1.21,8.874,0,10.933,0,13.16c0,1.703,0.696,3.245,1.818,4.359
				c-0.107,0.08-0.199,0.182-0.267,0.302c-0.177,0.31-0.174,0.692,0.007,1l9.929,16.819L10.39,48.545
				c-0.024,0.278,0.07,0.553,0.259,0.758c0.188,0.205,0.454,0.322,0.733,0.322h10.155c0.279,0,0.545-0.117,0.733-0.322
				c0.188-0.205,0.282-0.48,0.259-0.758L21.431,35.64l9.93-16.819c0.182-0.308,0.185-0.689,0.007-1
				C31.299,17.701,31.207,17.599,31.1,17.519z M18.794,2.444l1.958,3.392c0.178,0.308,0.506,0.498,0.862,0.498
				c0.356,0,0.684-0.19,0.862-0.498l1.958-3.392c0.842,0.779,1.339,1.883,1.339,3.056c0,0.9-0.285,1.754-0.803,2.459
				c-0.307-0.311-0.794-0.394-1.193-0.171c-0.891,0.497-1.627,1.198-2.164,2.025c-0.537-0.827-1.271-1.528-2.162-2.025
				c-0.399-0.222-0.885-0.141-1.192,0.17c-0.518-0.706-0.805-1.562-0.805-2.457C17.454,4.326,17.951,3.222,18.794,2.444z
				 M12.465,47.635l0.955-11.232h2.043v6.651c0,0.55,0.446,0.995,0.995,0.995c0.55,0,0.995-0.446,0.995-0.995v-6.651h2.043
				l0.955,11.232H12.465z M19.844,34.412H18.46l2.134-9.222c0.124-0.536-0.21-1.07-0.746-1.194c-0.534-0.123-1.07,0.21-1.194,0.745
				l-2.195,9.486l-2.195-9.486c-0.124-0.536-0.659-0.869-1.194-0.745c-0.536,0.124-0.869,0.659-0.745,1.194l2.134,9.222h-1.384
				L4.159,19.31H28.76L19.844,34.412z M10.671,17.319c0.232-0.253,0.445-0.524,0.633-0.813c0.188,0.289,0.401,0.56,0.633,0.813
				H10.671z M20.981,17.319c0.233-0.253,0.445-0.525,0.633-0.814c0.188,0.289,0.401,0.56,0.633,0.814H20.981z M16.461,8.854
				c0.209,0.321,0.452,0.622,0.721,0.902l-0.722,1.251l-0.721-1.249C16.008,9.478,16.251,9.176,16.461,8.854z M15.597,13.496
				c0.178,0.308,0.506,0.498,0.862,0.498s0.684-0.19,0.862-0.498l1.958-3.392c0.842,0.778,1.339,1.883,1.339,3.056
				c0,2.293-1.866,4.159-4.159,4.159S12.3,15.453,12.3,13.16c0-1.173,0.497-2.277,1.339-3.056L15.597,13.496z M8.484,2.444
				l1.958,3.391c0.178,0.308,0.506,0.498,0.862,0.498c0.356,0,0.684-0.19,0.862-0.498l1.958-3.392
				c0.843,0.778,1.339,1.883,1.339,3.056c0,0.9-0.286,1.753-0.804,2.457c-0.307-0.31-0.793-0.392-1.192-0.17
				c-0.892,0.498-1.627,1.2-2.164,2.028c-0.537-0.828-1.27-1.531-2.162-2.028C8.743,7.565,8.257,7.646,7.95,7.957
				C7.432,7.251,7.145,6.395,7.145,5.5C7.145,4.326,7.642,3.222,8.484,2.444z M3.33,10.104l1.958,3.391
				c0.178,0.308,0.506,0.498,0.862,0.498s0.684-0.19,0.862-0.498l1.958-3.391c0.842,0.778,1.339,1.883,1.339,3.056
				c0,2.293-1.866,4.159-4.159,4.159s-4.159-1.866-4.159-4.159C1.991,11.987,2.487,10.883,3.33,10.104z M26.768,17.319
				c-2.293,0-4.159-1.866-4.159-4.159c0-1.173,0.497-2.277,1.339-3.056l1.958,3.391c0.178,0.308,0.506,0.498,0.862,0.498
				s0.684-0.19,0.862-0.498l1.958-3.392c0.842,0.778,1.339,1.883,1.339,3.056C30.927,15.453,29.062,17.319,26.768,17.319z"/>
		</g>
	</g>
</g>
</svg>
