<?xml version="1.0" encoding="iso-8859-1"?>
<!-- Generator: Adobe Illustrator 19.0.1, SVG Export Plug-In . SVG Version: 6.00 Build 0)  -->
<svg version="1.1" id="Layer_1" xmlns="http://www.w3.org/2000/svg" xmlns:xlink="http://www.w3.org/1999/xlink" x="0px" y="0px"
	 viewBox="-223 24.147 512.853 512.853" style="enable-background:new -223 24.147 512.853 512.853;" xml:space="preserve">
<g transform="translate(1 1)">
	<g>
		<g>
			<path style="fill:#FFFFFF;" d="M281.173,217.28l-74.24-81.92c-5.973-5.973-13.653-9.387-21.333-9.387h-85.333v-17.92
				c0-18.773-14.507-33.28-32.427-33.28h-258.56C-209.493,74.774-224,89.28-224,108.054v205.653v17.067v72.533
				c0,16.213,13.653,29.867,29.867,29.867h13.403c4.075,29.155,28.753,51.2,59.131,51.2s55.056-22.045,59.131-51.2H83.2h17.067
				h26.203c4.075,29.155,28.753,51.2,59.131,51.2s55.056-22.045,59.131-51.2H288h0.853V236.907
				C288.853,229.227,286.293,222.4,281.173,217.28z M267.52,228.374c2.56,1.707,3.413,5.12,3.413,7.68v26.453h-128v-85.333h77.653
				L267.52,228.374z M-206.933,253.974h119.467c5.12,0,8.533-3.413,8.533-8.533s-3.413-8.533-8.533-8.533h-119.467v-25.6h85.333
				c5.12,0,8.533-3.413,8.533-8.533c0-5.12-3.413-8.533-8.533-8.533h-85.333v-86.188c0-9.387,6.827-16.213,16.213-16.213H66.987
				c9.387,0,16.213,7.68,16.213,16.213v17.92v187.733h-290.133V253.974z M-121.6,467.307c-23.893,0-42.667-18.773-42.667-42.667
				c0-23.893,18.773-42.667,42.667-42.667c23.893,0,42.667,18.773,42.667,42.667S-97.707,467.307-121.6,467.307z M83.2,416.107
				H-62.469c-3.821-27.339-25.761-48.416-53.528-50.936c-0.203-0.019-0.409-0.029-0.613-0.046c-0.699-0.056-1.397-0.114-2.103-0.147
				c-0.957-0.046-1.919-0.072-2.887-0.072s-1.93,0.026-2.887,0.072c-0.706,0.033-1.404,0.09-2.103,0.147
				c-0.204,0.017-0.41,0.027-0.613,0.046c-27.767,2.52-49.707,23.597-53.528,50.936h-13.402c-6.827,0-12.8-5.973-12.8-12.8v-72.533
				H83.2V416.107z M185.6,467.307c-23.893,0-42.667-18.773-42.667-42.667c0-23.893,18.773-42.667,42.667-42.667
				c23.893,0,42.667,18.773,42.667,42.667S209.493,467.307,185.6,467.307z M244.731,416.107
				c-3.821-27.339-25.761-48.416-53.528-50.936c-0.203-0.019-0.409-0.029-0.613-0.046c-0.699-0.056-1.397-0.114-2.103-0.147
				c-0.957-0.046-1.919-0.072-2.887-0.072s-1.93,0.026-2.887,0.072c-0.706,0.033-1.404,0.09-2.103,0.147
				c-0.204,0.017-0.41,0.027-0.613,0.046c-27.767,2.52-49.707,23.597-53.528,50.936h-26.203v-85.333v-17.067V143.04H185.6
				c2.56,0,5.973,1.707,8.533,3.413l12.231,13.653h-65.991c-7.68,0-14.507,6.827-14.507,14.507v90.453
				c0,7.68,6.827,14.507,14.507,14.507h130.56v42.667h-42.667c-5.12,0-8.533,3.413-8.533,8.533s3.413,8.533,8.533,8.533h42.667v76.8
				h-26.202V416.107z"/>
		</g>
	</g>
</g>
</svg>
