<?xml version="1.0" encoding="utf-8"?>
<!-- Generator: Adobe Illustrator 19.0.1, SVG Export Plug-In . SVG Version: 6.00 Build 0)  -->
<svg version="1.1" id="Слой_1" xmlns="http://www.w3.org/2000/svg" xmlns:xlink="http://www.w3.org/1999/xlink" x="0px" y="0px"
	 viewBox="-338 242.6 281.2 77.4" style="enable-background:new -338 242.6 281.2 77.4;" xml:space="preserve">
<style type="text/css">
	.st0{fill:#FF4530;}
	.st1{fill:#1B1B1B;}
</style>
<path class="st0" d="M-264.4,258.4c-11.3-16.5-36.8-21.2-55.8-8.7c-13.6,9-19.6,24.6-17.3,39.1l19.1,1.1c0,0,2.2,0.4,4-1.6
	c1.8-2,3.2-3.4,3.2-3.4s2.1-2.1,2.1,0.3s-0.3,3.5,0.5,4.3c0.7,0.7,2.8,0.8,3.7,0.9c1.7,0.2,5.1,0.6,6.1,2c1.2,1.6,2.1,5.2,1.7,8.4
	c-0.4,3.2-1.4,5.2-5.6,5.1c-4.3-0.1-16.6-1.3-18.8-1.6c-1.6-0.2-7.2-1.1-10.8-1.5c0.5,0.8,1.1,1.7,1.6,2.5
	c12.7,17.3,36.3,19.3,53.9,6c3.2-2.4,6-5.2,8.4-8.1c-1.6,0-3.7,0.1-4.7,0.2c-1.4,0.2-7,1.2-8.2,1.5c-1.2,0.4-4.8,0.8-5-0.1
	c-0.2-0.9,2.5-1.6,3.2-1.9c0.6-0.3,3.5-0.8,4.2-2.5c0.6-1.6-2.5-1.5-3-1.5s-3.7,0.4-5.9,0.5c-1.7,0-1.3-1.2,0.5-2
	c1.1-0.5,4.2-1.6,6.1-2c2.9-0.7,0.9-1.9,0.2-2.3s-2-0.7-5.5-1.8c-3.3-1,0.6-1.7,1.9-1.7c1.3,0,5.3,0.5,8.3,0.6c3,0.1-0.7-1.7-1.2-5
	c-0.5-3.3,3.4,0.8,4,1.1c0.6,0.4,3.9,3.3,5.1,4.1c1.3,0.7,3.5,1,4.5,1c1.1,0,2-0.4,2.5-0.7C-257.1,279.9-257.8,268.1-264.4,258.4
	 M-308.3,312.4l-0.6-0.1l0.7-4.1l1.1,0.2L-308.3,312.4z M-297.8,253.9c0.4-0.2,1.6,0.8,2,1.1c0.4,0.3,2,1.4,1.5,2.5
	c-0.4,1-1.7,0.6-2,0.4c-0.3-0.2-0.6-0.7-1.1-1.6C-297.8,255.4-298.3,254.1-297.8,253.9z M-289.8,267.4c-1.5,3.5-3.9,5.4-5.5,6.6
	c-1.6,1.3-3,2-4.4,3.5c-1.4,1.5-3.2,10.3-3.2,10.3l-0.9-0.2c0-1,1.7-8.1,1.6-9.1c-0.1-1-1-1.7-1.9-2c-0.9-0.3-3.9-1.1-6.1-3.3
	c-2.6-2.7-4.1-8.3-4-10.1c0.1-0.8,0.1-1.3,1-0.7c0.6,0.4,3.6,1.1,4.8,0.7c1.1-0.4,2.1-2.5,2.5-6.8c0.4-3.2,0.8-2.7,5.5,2.1
	c1.5,1.8,4.2,3.9,5.4,4c1.4,0.2,3.6-1,4.1-3.4c0.5-2.5,1-1.6,1.4-0.4C-288.6,261.4-288.8,265.1-289.8,267.4z"/>
<path class="st1" d="M-160.3,278.7c-0.9,1-2.4,1.8,0.3,1.4c2.7-0.5,5.2,4.6,13-2.6c0.3-0.7-0.3-1-1.3-0.7
	C-152.6,278.4-153.7,272.7-160.3,278.7"/>
<path class="st1" d="M-127.7,271c1.4,1.1,1.2,2.2,0,3.1l-4.3,2c-0.5,0.5-1.1,0.5-1.6,0.1c-1.4-1.4-3-1.7-4-0.1
	c-1.2,1.8-1.4,5.1,0.1,6.8c1.8,2.1,5.4,1.3,5.1-2c-0.2-0.9,0-1.5,0.5-1.9l4.2-3c1.2-0.1,1.8,0.3,1.8,1.4c1.8,9.3,2.4,23.7-8.7,27.4
	c-3.4,1.2-6.9,0.9-8.3-3c-1.2-3.4,1.7-7.2,8-9.9c0.7-0.1,0.9,0.4,0.5,1.1c-1.4,1.2-2.4,2.3-3,3.2c-2.1,3.5,1.8,5.8,4.4,3.6
	c2.9-2.5,1.5-9.8,1.4-13.8c-13.4,8-16.9-7.1-7.2-14.2C-135.6,269.6-131.6,268.8-127.7,271"/>
<path class="st1" d="M-91.8,288.5c-0.3-0.5-1-0.4-2.3,0.2l-3.5,2.3c-0.6,0.4-0.8,0.9-0.7,1.6c0.3,4.2,0.9,7.3,1.8,9.8
	c0.4,0.5,0.8,0.8,1.5,0.6c2-0.6,3.8-1.5,5.7-2.3c0.5-0.3,0.8-0.8,0.5-1.6C-90.4,295.9-91.4,292.4-91.8,288.5"/>
<path class="st1" d="M-70.8,269.4c1.1-0.4,1.9,0.6,1.4,1.7c-7.6,10.1-0.4,15.7,3.1,10.8c0.2-0.3,0.2-0.6,0.1-1c-0.2-1.8-0.1-3.1,0-5
	c0.1-0.5,0.4-0.8,0.9-1.1l4.4-1.9c1-0.1,1.5,0.3,1.5,1.2c-0.2,5,0.9,7.9,2.8,9.4c0.8,0.9,0.6,1.5-0.2,1.8l-4.4,2.3
	c-1.3,0.6-2.2,0.2-3-1l-1.3-3.1c-2.1,2.2-4.2,3.4-6.4,3.8c-3.4,0.6-7-0.6-7.5-4.3C-80.4,276.7-76,272.2-70.8,269.4"/>
<path class="st1" d="M-212.5,275.1c-0.1,1.5-2.4,2.2-4.5,2.6l0,0c0-1.4,0.5-2.6,1.6-3.5C-214,273-212.3,273-212.5,275.1
	 M-197.5,288.5c-0.3-0.5-1-0.4-2.3,0.2l-3.5,2.3c-0.6,0.4-0.8,0.9-0.7,1.6c0.3,4.2,0.9,7.3,1.8,9.8c0.4,0.5,0.8,0.8,1.5,0.6
	c2-0.6,3.8-1.5,5.7-2.3c0.5-0.3,0.8-0.8,0.5-1.6C-196.1,295.8-197.1,292.3-197.5,288.5z M-176.5,269.3c1.1-0.4,1.9,0.6,1.4,1.7
	c-7.6,10.1-0.4,15.7,3.1,10.8c0.2-0.3,0.2-0.6,0.1-1c-0.2-1.8-0.1-3.1,0-5c0.1-0.5,0.4-0.8,0.9-1.1l4.4-1.9c1-0.1,1.5,0.3,1.5,1.2
	c-0.2,5,0.9,7.9,2.8,9.4c0.8,0.9,0.6,1.5-0.2,1.8l-4.4,2.3c-1.3,0.6-2.2,0.2-3-1l-1.3-3.1c-2.1,2.2-4.2,3.4-6.4,3.8
	c-3.4,0.6-7-0.6-7.5-4.3C-186.1,276.6-181.7,272.1-176.5,269.3z M-222.8,283.7c3.4,5.8,14.8,4.8,20.5,4c3.8-0.5,7.6-1.4,9.9-2.8
	c4.4-2.6,6.8-5.4,6.1-10.8c-0.5-4-3.7-6.1-8.5-5.7c-4.7,1.1-7.5,3.7-9.1,7.1c-0.8,1.7-2.5,7.7,1.2,6.7l3.7-2c0.6-0.4,0.9-1,0.9-1.9
	c0.1-3.8,1.7-5.4,3.3-5.2c4,0.4,3.1,8.3-2.9,10.6c-0.9,0.4-2.8,0.8-4.9,1c-2.9,0.4-7.2,0.6-9.9-0.5c-2.3-0.9-3.9-3.2-4.4-5.4l0,0
	c0.3-0.1,0.7-0.1,1-0.2c3.6-0.6,10.2-2.5,9.4-7.4c-0.4-2.5-3.5-4.1-9.6-1.6C-220.8,272.2-226.1,278.1-222.8,283.7z"/>
<path class="st1" d="M-234.5,264.8c0.1,0,0.2,0.1,0.3,0.1l0,0c2.1,0.8,4.9,1.3,10.1-3.4c0.3-0.7-0.3-1-1.3-0.7
	c-2.9,1.1-4.3-1-6.8-0.9c-2.4-0.1-4.8,0.7-6.8,2.2c-6.9,5-5.7,12.2-4.3,19.5c0,1.1,0.6,1.6,1.8,1.4l4.2-3c0.5-0.4,0.7-0.9,0.5-1.9
	c-0.3-3.2,3.2-4.1,5.1-2c1.5,1.7,1.3,5,0.1,6.8c-1,1.5-2.6,1.3-4-0.1c-0.6-0.3-1.1-0.3-1.6,0.1l-4.3,2c-1.2,0.9-1.4,2,0,3.1
	c3.9,2.1,7.9,1.3,11.1-1c9.7-7.1,6.3-22.2-7.2-14.2h-0.2c-1.4-1.7-1.1-4.9,0-6.7c0.2-0.2,0.3-0.5,0.5-0.6
	C-236.4,264.8-235.5,264.5-234.5,264.8"/>
<path class="st1" d="M-80.6,274.2c-0.5-4.1-3.7-6.1-8.5-5.7c-4.7,1.1-7.5,3.7-9.1,7.1c-0.8,1.7-2.5,7.7,1.2,6.7l3.7-2
	c0.5-0.4,0.9-1,0.9-1.9c0.1-3.7,1.7-5.3,3.3-5.2c3.9,0.3,3.1,8.3-2.9,10.6c-2.1,0.8-4.4,0.9-6.7,0.2c-4.9-1.4-5.3-6.4-4.2-12.5
	c0.3-0.8,0-1.3-0.7-1.5l-3.4,0.7c-1.7-1.3-4.5-0.9-7.9-0.1c-6.9,1.6-12.5,11.3-6.2,15.7c1.8,1.2,4.4,1.5,7.4,0.1
	c1.6-0.7,3-1.8,4.3-3c2.9,5.5,14,6.7,22.7,1.6C-82.3,282.5-79.9,279.6-80.6,274.2z M-113.1,283c-1.7,0.4-3.9-2.2-4.1-4.1
	c-0.4-2.4,0.5-5,2.2-5.4c1.7-0.4,3.6,1.5,4.1,4.1C-110.3,280.2-111.3,282.7-113.1,283z"/>
</svg>
