<?xml version="1.0" encoding="utf-8"?>
<!-- Generator: Adobe Illustrator 19.0.1, SVG Export Plug-In . SVG Version: 6.00 Build 0)  -->
<svg version="1.1" id="Слой_1" xmlns="http://www.w3.org/2000/svg" xmlns:xlink="http://www.w3.org/1999/xlink" x="0px" y="0px"
	 viewBox="0 0 281.2 77.4" style="enable-background:new 0 0 281.2 77.4;" xml:space="preserve">
<style type="text/css">
	.st0{fill:#88959D;}
	.st1{fill-rule:evenodd;clip-rule:evenodd;fill:#88959D;}
</style>
<path class="st0" d="M73.6,15.8C62.3-0.7,36.8-5.4,17.8,7.1C4.2,16.1-1.8,31.7,0.5,46.2l19.1,1.1c0,0,2.2,0.4,4-1.6
	c1.8-2,3.2-3.4,3.2-3.4s2.1-2.1,2.1,0.3s-0.3,3.5,0.5,4.3c0.7,0.7,2.8,0.8,3.7,0.9c1.7,0.2,5.1,0.6,6.1,2c1.2,1.6,2.1,5.2,1.7,8.4
	c-0.4,3.2-1.4,5.2-5.6,5.1c-4.3-0.1-16.6-1.3-18.8-1.6c-1.6-0.2-7.2-1.1-10.8-1.5c0.5,0.8,1.1,1.7,1.6,2.5C20,80,43.6,82,61.2,68.7
	c3.2-2.4,6-5.2,8.4-8.1c-1.6,0-3.7,0.1-4.7,0.2c-1.4,0.2-7,1.2-8.2,1.5c-1.2,0.4-4.8,0.8-5-0.1c-0.2-0.9,2.5-1.6,3.2-1.9
	c0.6-0.3,3.5-0.8,4.2-2.5c0.6-1.6-2.5-1.5-3-1.5c-0.5,0-3.7,0.4-5.9,0.5c-1.7,0-1.3-1.2,0.5-2c1.1-0.5,4.2-1.6,6.1-2
	c2.9-0.7,0.9-1.9,0.2-2.3c-0.7-0.4-2-0.7-5.5-1.8c-3.3-1,0.6-1.7,1.9-1.7c1.3,0,5.3,0.5,8.3,0.6c3,0.1-0.7-1.7-1.2-5
	c-0.5-3.3,3.4,0.8,4,1.1c0.6,0.4,3.9,3.3,5.1,4.1c1.3,0.7,3.5,1,4.5,1c1.1,0,2-0.4,2.5-0.7C80.9,37.3,80.2,25.5,73.6,15.8
	 M29.7,69.8l-0.6-0.1l0.7-4.1l1.1,0.2L29.7,69.8z M40.2,11.3c0.4-0.2,1.6,0.8,2,1.1c0.4,0.3,2,1.4,1.5,2.5c-0.4,1-1.7,0.6-2,0.4
	c-0.3-0.2-0.6-0.7-1.1-1.6C40.2,12.8,39.7,11.5,40.2,11.3z M48.2,24.8c-1.5,3.5-3.9,5.4-5.5,6.6c-1.6,1.3-3,2-4.4,3.5
	c-1.4,1.5-3.2,10.3-3.2,10.3l-0.9-0.2c0-1,1.7-8.1,1.6-9.1c-0.1-1-1-1.7-1.9-2c-0.9-0.3-3.9-1.1-6.1-3.3c-2.6-2.7-4.1-8.3-4-10.1
	c0.1-0.8,0.1-1.3,1-0.7c0.6,0.4,3.6,1.1,4.8,0.7c1.1-0.4,2.1-2.5,2.5-6.8c0.4-3.2,0.8-2.7,5.5,2.1c1.5,1.8,4.2,3.9,5.4,4
	c1.4,0.2,3.6-1,4.1-3.4c0.5-2.5,1-1.6,1.4-0.4C49.4,18.8,49.2,22.5,48.2,24.8z"/>
<path class="st1" d="M177.7,36.1c-0.9,1-2.4,1.8,0.3,1.4c2.7-0.5,5.2,4.6,13-2.6c0.3-0.7-0.3-1-1.3-0.7
	C185.4,35.8,184.3,30.1,177.7,36.1"/>
<path class="st1" d="M210.3,28.4c1.4,1.1,1.2,2.2,0,3.1l-4.3,2c-0.5,0.5-1.1,0.5-1.6,0.1c-1.4-1.4-3-1.7-4-0.1
	c-1.2,1.8-1.4,5.1,0.1,6.8c1.8,2.1,5.4,1.3,5.1-2c-0.2-0.9,0-1.5,0.5-1.9l4.2-3c1.2-0.1,1.8,0.3,1.8,1.4c1.8,9.3,2.4,23.7-8.7,27.4
	c-3.4,1.2-6.9,0.9-8.3-3c-1.2-3.4,1.7-7.2,8-9.9c0.7-0.1,0.9,0.4,0.5,1.1c-1.4,1.2-2.4,2.3-3,3.2c-2.1,3.5,1.8,5.8,4.4,3.6
	c2.9-2.5,1.5-9.8,1.4-13.8c-13.4,8-16.9-7.1-7.2-14.2C202.4,27,206.4,26.2,210.3,28.4"/>
<path class="st1" d="M223.6,30.8c1.8,0,3.4,2.2,3.7,4.8c0.2,2.7-1,4.8-2.8,4.8c-1.8,0-3.4-2.2-3.7-4.8
	C220.6,33,221.9,30.8,223.6,30.8 M231,28.1l3.4-0.7c0.7,0.2,1,0.7,0.7,1.5c-1.1,6.1-0.7,11.1,4.2,12.5c2.3,0.7,4.6,0.6,6.7-0.2
	c6-2.3,6.8-10.3,2.9-10.6c-1.6-0.1-3.2,1.5-3.3,5.2c0,0.9-0.4,1.5-0.9,1.9l-3.7,2c-3.7,1-2-5-1.2-6.7c1.6-3.4,4.4-6,9.1-7.1
	c4.8-0.4,8,1.6,8.5,5.7c0.7,5.4-1.7,8.3-6.1,10.8c-8.7,5.1-19.8,3.9-22.7-1.6l0,0c-1.3,1.2-2.7,2.3-4.3,3c-3,1.4-5.6,1.1-7.4-0.1
	c-6.3-4.4-0.7-14.1,6.2-15.7C226.5,27.2,229.3,26.8,231,28.1z"/>
<path class="st1" d="M246.2,45.9c-0.3-0.5-1-0.4-2.3,0.2l-3.5,2.3c-0.6,0.4-0.8,0.9-0.7,1.6c0.3,4.2,0.9,7.3,1.8,9.8
	c0.4,0.5,0.8,0.8,1.5,0.6c2-0.6,3.8-1.5,5.7-2.3c0.5-0.3,0.8-0.8,0.5-1.6C247.6,53.3,246.6,49.8,246.2,45.9"/>
<path class="st1" d="M267.2,26.8c1.1-0.4,1.9,0.6,1.4,1.7c-7.6,10.1-0.4,15.7,3.1,10.8c0.2-0.3,0.2-0.6,0.1-1c-0.2-1.8-0.1-3.1,0-5
	c0.1-0.5,0.4-0.8,0.9-1.1l4.4-1.9c1-0.1,1.5,0.3,1.5,1.2c-0.2,5,0.9,7.9,2.8,9.4c0.8,0.9,0.6,1.5-0.2,1.8l-4.4,2.3
	c-1.3,0.6-2.2,0.2-3-1l-1.3-3.1c-2.1,2.2-4.2,3.4-6.4,3.8c-3.4,0.6-7-0.6-7.5-4.3C257.6,34.1,262,29.6,267.2,26.8"/>
<path class="st1" d="M125.5,32.5c-0.1,1.5-2.4,2.2-4.5,2.6c0,0,0,0,0,0c0-1.4,0.5-2.6,1.6-3.5C124,30.4,125.7,30.4,125.5,32.5
	 M140.5,45.9c-0.3-0.5-1-0.4-2.3,0.2l-3.5,2.3c-0.6,0.4-0.8,0.9-0.7,1.6c0.3,4.2,0.9,7.3,1.8,9.8c0.4,0.5,0.8,0.8,1.5,0.6
	c2-0.6,3.8-1.5,5.7-2.3c0.5-0.3,0.8-0.8,0.5-1.6C141.9,53.2,140.9,49.7,140.5,45.9z M161.5,26.7c1.1-0.4,1.9,0.6,1.4,1.7
	c-7.6,10.1-0.4,15.7,3.1,10.8c0.2-0.3,0.2-0.6,0.1-1c-0.2-1.8-0.1-3.1,0-5c0.1-0.5,0.4-0.8,0.9-1.1l4.4-1.9c1-0.1,1.5,0.3,1.5,1.2
	c-0.2,5,0.9,7.9,2.8,9.4c0.8,0.9,0.6,1.5-0.2,1.8l-4.4,2.3c-1.3,0.6-2.2,0.2-3-1l-1.3-3.1c-2.1,2.2-4.2,3.4-6.4,3.8
	c-3.4,0.6-7-0.6-7.5-4.3C151.9,34,156.3,29.5,161.5,26.7z M115.2,41.1c3.4,5.8,14.8,4.8,20.5,4c3.8-0.5,7.6-1.4,9.9-2.8
	c4.4-2.6,6.8-5.4,6.1-10.8c-0.5-4-3.7-6.1-8.5-5.7c-4.7,1.1-7.5,3.7-9.1,7.1c-0.8,1.7-2.5,7.7,1.2,6.7l3.7-2c0.6-0.4,0.9-1,0.9-1.9
	c0.1-3.8,1.7-5.4,3.3-5.2c4,0.4,3.1,8.3-2.9,10.6c-0.9,0.4-2.8,0.8-4.9,1c-2.9,0.4-7.2,0.6-9.9-0.5c-2.3-0.9-3.9-3.2-4.4-5.4
	c0,0,0,0,0,0c0.3-0.1,0.7-0.1,1-0.2c3.6-0.6,10.2-2.5,9.4-7.4c-0.4-2.5-3.5-4.1-9.6-1.6C117.2,29.6,111.9,35.5,115.2,41.1z"/>
<path class="st1" d="M103.5,22.2c0.1,0,0.2,0.1,0.3,0.1l0,0c2.1,0.8,4.9,1.3,10.1-3.4c0.3-0.7-0.3-1-1.3-0.7c-2.9,1.1-4.3-1-6.8-0.9
	c-2.4-0.1-4.8,0.7-6.8,2.2c-6.9,5-5.7,12.2-4.3,19.5c0,1.1,0.6,1.6,1.8,1.4l4.2-3c0.5-0.4,0.7-0.9,0.5-1.9c-0.3-3.2,3.2-4.1,5.1-2
	c1.5,1.7,1.3,5,0.1,6.8c-1,1.5-2.6,1.3-4-0.1c-0.6-0.3-1.1-0.3-1.6,0.1l-4.3,2c-1.2,0.9-1.4,2,0,3.1c3.9,2.1,7.9,1.3,11.1-1
	c9.7-7.1,6.3-22.2-7.2-14.2l-0.2,0c-1.4-1.7-1.1-4.9,0-6.7c0.2-0.2,0.3-0.5,0.5-0.6C101.6,22.2,102.5,21.9,103.5,22.2"/>
</svg>
